<svg width="30" height="30" viewBox="0 0 30 30" fill="none" xmlns="http://www.w3.org/2000/svg">
<path d="M28.3033 16.4355C28.2751 16.1201 28.1505 15.8283 27.9526 15.6141C27.9497 15.6112 27.9469 15.6078 27.944 15.6049C27.9465 15.6016 27.9485 15.5979 27.951 15.5942C28.1075 15.3476 28.178 15.0376 28.1493 14.7222C28.1194 14.3919 27.9846 14.1013 27.7887 13.8941C27.7916 13.89 27.794 13.8858 27.7969 13.8813C27.953 13.6347 28.0235 13.3247 27.9952 13.0093C27.9669 12.6939 27.842 12.4021 27.6441 12.1883C27.6408 12.1846 27.6375 12.1808 27.6338 12.1775C27.7895 11.9376 27.8707 11.6271 27.8407 11.2968C27.8125 10.981 27.6879 10.6893 27.49 10.4754C27.2704 10.2379 26.9762 10.1173 26.6816 10.1443L25.2131 10.2798L23.4869 10.4389L23.3714 9.15499C23.3214 8.59881 23.1264 8.17526 22.792 7.89551C22.4601 7.61825 22.016 7.50303 21.4711 7.55318L20.6967 7.62446C20.5688 7.63607 20.475 7.75045 20.4865 7.87934L20.7675 11.0453C20.768 11.066 20.77 11.0867 20.7716 11.1087C20.8102 11.5712 20.6774 11.7622 20.2824 11.812L6.24747 13.0885L4.33526 13.2646L3.05812 13.3823C2.92988 13.3943 2.76967 13.2086 2.74591 12.943C2.7332 12.8029 2.76189 12.6666 2.82416 12.5679C2.84916 12.5281 2.90242 12.4606 2.97454 12.4539C3.17694 12.4353 3.32895 12.2633 3.32895 12.0615C3.32895 12.0495 3.32854 12.0374 3.32731 12.0254C3.30806 11.8087 3.11794 11.6487 2.90406 11.6686C2.77705 11.6806 2.61561 11.4953 2.59185 11.2297C2.56808 10.964 2.69305 10.7523 2.82048 10.7406C3.02288 10.722 3.17449 10.55 3.17489 10.3486C3.17489 10.3366 3.17449 10.3241 3.17326 10.3121C3.15359 10.0954 2.96429 9.93622 2.74959 9.95528C2.69551 9.96025 2.64593 9.92917 2.61397 9.90223C2.51768 9.82142 2.45172 9.67719 2.43738 9.5168C2.42468 9.37714 2.45336 9.24037 2.51564 9.14215C2.54063 9.10236 2.59389 9.03481 2.66601 9.02818C2.86842 9.00953 3.02043 8.83795 3.02043 8.63653C3.02043 8.62451 3.02002 8.61208 3.01879 8.60006C2.99912 8.3833 2.80941 8.22333 2.59512 8.24322C2.46729 8.25483 2.30667 8.06957 2.28291 7.80433C2.25914 7.53867 2.38411 7.32731 2.51154 7.31529L4.27707 7.15241L5.96886 6.99658C6.09669 6.98498 6.19093 6.87059 6.17905 6.74129L6.01516 4.92313C5.95206 4.22024 6.1979 3.92143 6.89321 3.85719L7.12184 3.83606L7.36112 6.52827L7.36645 6.54236C7.36645 6.5436 7.36686 6.54484 7.36686 6.54567C7.38284 6.68161 7.42054 6.99949 7.61147 7.28752C7.77577 7.53494 8.09209 7.81925 8.67882 7.81925C8.71775 7.81925 8.75831 7.81801 8.79969 7.81552L27.0496 6.19713C27.1143 6.19133 27.1618 6.1333 27.1549 6.06782L26.9152 3.76063L26.14 3.8431L26.2965 5.3525C26.3034 5.41798 26.2559 5.476 26.1912 5.4818L8.74602 7.02933C8.29941 7.05544 8.18591 6.83785 8.14043 6.45284C8.13716 6.42631 8.13429 6.40145 8.12978 6.37658L7.84871 3.21398C7.83723 3.08467 7.72415 2.98935 7.59631 3.00096L6.82192 3.07224C5.69843 3.17585 5.13587 3.85844 5.2383 4.99483L5.35262 6.26178L4.20578 6.36746L2.44025 6.53034C1.86334 6.5838 1.44419 7.18723 1.50606 7.87603C1.53597 8.20634 1.67077 8.49686 1.86703 8.70408C1.86416 8.70823 1.8617 8.71237 1.85884 8.71652C1.70232 8.96311 1.63184 9.27311 1.66012 9.5885C1.6888 9.91135 1.81868 10.2077 2.02109 10.4211C1.86539 10.6611 1.78467 10.9715 1.81418 11.3018C1.84368 11.6317 1.97889 11.9226 2.17474 12.1299C2.17187 12.134 2.16941 12.1381 2.16654 12.1423C2.01003 12.3889 1.93955 12.6985 1.96823 13.0147C2.02765 13.6707 2.50252 14.171 3.04624 14.171C3.07328 14.171 3.10032 14.1697 3.12778 14.1672L5.18135 13.9778L6.31672 13.873L20.3574 12.5961L20.3689 12.5949C21.0449 12.5128 21.3322 12.1315 21.4543 11.8265C21.5854 11.4982 21.5575 11.1667 21.5473 11.0419C21.5469 11.0382 21.5464 11.0349 21.5464 11.0316L21.5473 11.0225L21.3104 8.35885L21.5407 8.33772C21.8734 8.30705 22.127 8.36258 22.2946 8.50225C22.463 8.64316 22.5638 8.88644 22.5945 9.22545L22.7441 10.889L22.7642 11.066C22.7785 11.1928 22.8904 11.2848 23.0162 11.2732L24.9784 11.0921L25.0263 11.0875L25.7548 11.0204L26.7521 10.9284C26.8234 10.9222 26.8885 10.9785 26.9201 11.0129C26.9992 11.0983 27.0516 11.2276 27.0639 11.3673C27.0877 11.6325 26.9627 11.8443 26.8353 11.8559C26.6329 11.8746 26.4808 12.0466 26.4808 12.248C26.4808 12.26 26.4813 12.2724 26.4825 12.2844C26.5022 12.5012 26.6927 12.6612 26.9061 12.6413C26.9787 12.6346 27.0422 12.6914 27.0741 12.7258C27.1532 12.8112 27.2057 12.9401 27.218 13.0802C27.2307 13.2202 27.202 13.357 27.1397 13.4552C27.1147 13.495 27.0614 13.5626 26.9897 13.5692C26.7873 13.5879 26.6353 13.7599 26.6353 13.9617C26.6353 13.9737 26.6357 13.9857 26.637 13.9977C26.6566 14.2145 26.8455 14.3745 27.0602 14.3546C27.1885 14.3426 27.3483 14.5278 27.3724 14.7935C27.3851 14.9331 27.3564 15.0699 27.2942 15.1681C27.2692 15.2079 27.2159 15.2755 27.1438 15.2821C26.9414 15.3007 26.7894 15.4727 26.7894 15.6742C26.7894 15.6862 26.7898 15.6986 26.791 15.7106C26.8107 15.9274 27.0012 16.0869 27.2147 16.0675C27.2868 16.0608 27.3507 16.1176 27.3827 16.152C27.4617 16.2374 27.5142 16.3667 27.5265 16.5064C27.5392 16.6464 27.5105 16.7828 27.4482 16.8814C27.4232 16.9212 27.37 16.9888 27.2995 16.9954L25.8716 17.1222L3.56578 19.0979C3.50227 19.1037 3.44614 19.056 3.43999 18.9918L3.30478 17.5362C3.30191 17.5039 3.27364 17.4803 3.24168 17.4832L2.5816 17.547C2.54964 17.5499 2.52629 17.5785 2.52916 17.6108L2.73689 19.8463C2.74304 19.9106 2.79917 19.9578 2.86268 19.9524L25.552 17.9428L25.9216 17.9101L25.94 17.9084L27.3691 17.7816C27.6633 17.7547 27.9313 17.5818 28.105 17.3079C28.2615 17.0609 28.332 16.7513 28.3033 16.4355Z" fill="#ffffff"/>
<path fill-rule="evenodd" clip-rule="evenodd" d="M17.5279 22.5132H18.1126V27.0812H17.5279V22.5132ZM23.7009 23.723H22.8151V24.0761H23.8918V24.5693H21.3118V24.0761H22.3279V23.723H21.4416V23.2302H22.3279V22.7702H22.8151V23.2302H23.7009V23.723ZM23.3739 24.7446H22.8868V25.0094H21.3785V25.1694L21.3257 24.8697L21.0192 24.9249V24.1913H21.2708V23.6985H21.0192V22.8535H20.532V23.6985H20.3587L20.4243 23.2024L19.9412 23.1374L19.7421 24.6447L20.2252 24.7098L20.2936 24.1913H20.5316V25.0127L19.8228 25.1408L19.9084 25.6261L20.5316 25.5138V26.8537H21.0188V25.4259L21.3781 25.3613V25.503H21.7051L21.4552 25.7251L21.9854 26.334L22.3512 26.0086L21.9112 25.5018H22.8868V26.0356C22.8868 26.2834 22.8364 26.3066 22.6004 26.3066H22.0829V26.7994H22.6004C23.1138 26.7994 23.3739 26.5424 23.3739 26.0356V25.5018H23.8349V25.009H23.3739V24.7446ZM27.9265 24.4681C27.9523 24.4702 27.9908 24.4714 28.0465 24.4714V24.4719H28.4989V24.9692H28.0461H28.0268V26.1416H27.5352V25.4499H25.4238V26.1416H24.9321V25.0968C24.8277 25.1735 24.7408 25.2166 24.724 25.2249L24.5134 24.7756C24.5679 24.7491 24.7314 24.6501 24.8195 24.5208C24.8625 24.4578 24.8994 24.3479 24.9252 24.2485H24.5634V23.7512H24.7064L24.4499 23.6591L24.7572 22.7814L25.2206 22.9471L25.1743 23.0793H25.391V22.839H25.8827V23.0793H26.333V23.5767H25.8827V23.7507H26.3781V24.2481H26.0712V24.3894L26.2838 24.2758L26.51 24.7098C26.5768 24.6633 26.6559 24.597 26.7079 24.5204C26.7509 24.4574 26.7878 24.3475 26.8136 24.2481H26.4416V23.7507H26.5948L26.3383 23.6587L26.6456 22.7809L27.109 22.9467L27.0627 23.0789H27.2795V22.8386H27.7712V23.0789H28.3895V23.5763H27.7712V23.7503H28.4571V24.2477H27.9236V24.2787C27.9236 24.3455 27.9236 24.4184 27.9265 24.4681ZM25.3915 23.5767H25.0006L24.9395 23.7507H25.3915V23.5767ZM25.1005 24.9518H25.6283L25.4951 24.6965L25.5799 24.6513V24.2477H25.43C25.4058 24.3687 25.3435 24.6273 25.2251 24.8018C25.1875 24.8571 25.1447 24.9071 25.1005 24.9518ZM26.0707 24.9518H26.4854L26.4023 24.7748C26.4113 24.7707 26.4236 24.764 26.4379 24.7558L26.4023 24.7748L26.0707 24.9518ZM27.2795 23.5767H26.8886L26.8276 23.7507H27.2795V23.5767ZM26.989 24.9518H27.7958C27.695 24.9323 27.5991 24.89 27.5286 24.7964C27.4323 24.6687 27.4323 24.5133 27.4323 24.2787V24.2477H27.3184C27.2942 24.3687 27.232 24.6273 27.1136 24.8018C27.076 24.8571 27.0331 24.9071 26.989 24.9518ZM26.653 25.9498C26.7182 25.8006 26.753 25.6501 26.753 25.5221H26.2613C26.2613 25.6767 26.1216 25.9842 25.9024 26.1143C25.3349 26.4513 24.5511 26.3638 24.5437 26.363L24.4851 26.8566C24.4982 26.8582 24.6134 26.8715 24.7879 26.8715C25.1247 26.8715 25.6819 26.8218 26.1515 26.5433C26.2195 26.5026 26.2826 26.4542 26.3404 26.3999C26.4731 26.4214 26.8886 26.4927 27.218 26.5913C27.6015 26.7061 28.1633 26.9407 28.1686 26.9432L28.3567 26.484C28.3329 26.4741 27.7663 26.2374 27.3578 26.1147C27.1205 26.0434 26.8509 25.9867 26.653 25.9498ZM1.5 22.9085H4.19849V23.5049H3.20203V26.2779H2.50138V23.5049H1.5V22.9085ZM6.24305 24.2049C6.13119 24.0371 5.98901 23.914 5.81733 23.8365C5.64566 23.7586 5.45226 23.7196 5.23797 23.7196C4.877 23.7196 4.58322 23.8348 4.35705 24.0653C4.13088 24.2957 4.01779 24.6264 4.01779 25.0583C4.01779 25.5191 4.14317 25.8515 4.39352 26.0558C4.64427 26.2601 4.93354 26.3625 5.26133 26.3625C5.65836 26.3625 5.9673 26.2415 6.18814 25.999C6.32991 25.8465 6.4094 25.6965 6.42701 25.5485H5.7694C5.73088 25.6215 5.68704 25.6787 5.63664 25.7201C5.54486 25.7964 5.42563 25.8345 5.27895 25.8345C5.14046 25.8345 5.02205 25.8034 4.92371 25.7408C4.76187 25.6401 4.67623 25.4648 4.66599 25.2149H6.4602C6.46348 24.9998 6.45611 24.8349 6.4389 24.7205C6.4094 24.5249 6.34384 24.3529 6.24305 24.2049ZM4.68238 24.7847C4.70573 24.6227 4.76269 24.4938 4.85406 24.3989C4.94502 24.304 5.07326 24.2567 5.23838 24.2567C5.39039 24.2567 5.51782 24.3015 5.62025 24.391C5.7231 24.4805 5.78005 24.6119 5.79193 24.7847H4.68238ZM8.5941 23.7859V24.3276L7.3854 25.7425H8.63713V26.2775H6.5602V25.7703L7.7812 24.3164H6.64624V23.7859H8.5941ZM9.76265 22.8874H9.10954V23.4887H9.76265V22.8874ZM9.10954 23.7859H9.76265V26.2775H9.10954V23.7859ZM11.6052 23.7838C11.7611 23.8492 11.8876 23.9692 11.9838 24.1441V23.7859H12.6119V26.1495C12.6119 26.4711 12.5582 26.7131 12.4513 26.8764C12.2677 27.157 11.915 27.297 11.3938 27.297C11.0787 27.297 10.8218 27.2345 10.6231 27.1097C10.4244 26.985 10.3141 26.7981 10.2932 26.5498H10.9939C11.0119 26.6261 11.0414 26.6808 11.082 26.7143C11.1512 26.7736 11.268 26.8034 11.4323 26.8034C11.6642 26.8034 11.8195 26.7251 11.8978 26.568C11.949 26.4677 11.9748 26.2987 11.9748 26.0608V25.9008C11.9133 26.0073 11.847 26.0873 11.7761 26.1408C11.6478 26.2402 11.4815 26.2895 11.2766 26.2895C10.9599 26.2895 10.7071 26.1772 10.5182 25.9522C10.3293 25.7271 10.2347 25.4229 10.2347 25.0388C10.2347 24.6687 10.326 24.3574 10.5079 24.105C10.6903 23.853 10.9484 23.7266 11.2823 23.7266C11.4057 23.7266 11.5134 23.7457 11.6052 23.7838ZM11.8244 25.5701C11.7208 25.6853 11.5941 25.7425 11.4442 25.7425C11.2192 25.7425 11.0631 25.6372 10.9759 25.4271C10.9279 25.3144 10.9037 25.1855 10.9037 25.0408C10.9037 24.8734 10.9263 24.7321 10.9714 24.6181C11.057 24.403 11.2123 24.2957 11.4372 24.2957C11.6023 24.2957 11.7339 24.3574 11.8322 24.4809C11.9305 24.6044 11.9797 24.7843 11.9797 25.0205C11.9797 25.2717 11.9281 25.4549 11.8244 25.5701ZM14.5778 23.7266C14.8314 23.7266 15.0388 23.7942 15.2002 23.9289C15.3612 24.0636 15.4419 24.2874 15.4419 24.5999V26.2775H14.7823V24.7619C14.7823 24.6309 14.7651 24.5302 14.7307 24.4602C14.668 24.3321 14.5483 24.2683 14.3717 24.2683C14.1546 24.2683 14.0058 24.362 13.9251 24.5493C13.8833 24.6488 13.8624 24.7752 13.8624 24.9289V26.2775H13.2183V23.7905H13.8419V24.1539C13.9243 24.0259 14.0026 23.9339 14.0759 23.8775C14.2078 23.7768 14.3754 23.7266 14.5778 23.7266Z" fill="#ffffff"/>
</svg>
