<svg width="1em" height="1em" viewBox="64 64 896 896" fill="currentColor" xmlns="http://www.w3.org/2000/svg">
<g clip-path="url(#clip0_11_5)">
<path d="M23.1429 10.1786H20.25V7.13571C20.25 6.66161 19.867 6.27857 19.3929 6.27857H10.9554L7.81339 3.27321C7.77342 3.23579 7.72083 3.21475 7.66607 3.21428H0.857143C0.383036 3.21428 0 3.59732 0 4.07143V19.9286C0 20.4027 0.383036 20.7857 0.857143 20.7857H19.5536C19.9018 20.7857 20.2179 20.5741 20.3491 20.25L23.9384 11.3571C23.9786 11.2554 24 11.1455 24 11.0357C24 10.5616 23.617 10.1786 23.1429 10.1786ZM1.92857 5.14286H6.97768L10.1813 8.20714H18.3214V10.1786H4.66071C4.3125 10.1786 3.99643 10.3902 3.86518 10.7143L1.92857 15.5143V5.14286ZM18.9455 18.8571H2.54464L5.31161 12H21.7152L18.9455 18.8571Z" fill="black"/>
</g>
<defs>
<clipPath id="clip0_11_5">
<rect width="24" height="24" fill="white"/>
</clipPath>
</defs>
</svg>
